<svg xmlns="http://www.w3.org/2000/svg" viewBox="0 0 2560 1440" fill="none">
  <defs>
    <radialGradient id="skyGlow" cx="0" cy="0" r="1" gradientUnits="userSpaceOnUse" gradientTransform="translate(1280 180) rotate(90) scale(420 1100)">
      <stop stop-color="#2A2324"/>
      <stop offset="0.6" stop-color="#101014"/>
      <stop offset="1" stop-color="#050506"/>
    </radialGradient>
    <linearGradient id="beam" x1="1280" y1="0" x2="1280" y2="980" gradientUnits="userSpaceOnUse">
      <stop stop-color="#E2BE70" stop-opacity="0.26"/>
      <stop offset="1" stop-color="#E2BE70" stop-opacity="0"/>
    </linearGradient>
  </defs>
  <rect width="2560" height="1440" fill="#050506"/>
  <rect width="2560" height="1440" fill="url(#skyGlow)"/>
  <ellipse cx="1280" cy="194" rx="620" ry="220" fill="url(#beam)"/>
  <ellipse cx="420" cy="1180" rx="560" ry="180" fill="#0E0E11"/>
  <ellipse cx="2120" cy="1220" rx="620" ry="220" fill="#0D0D10"/>
  <ellipse cx="1260" cy="980" rx="980" ry="260" fill="#0B0B0E"/>
  <path d="M936 890L1062 590H1498L1622 890H936Z" fill="#151418" stroke="#332A22" stroke-width="8"/>
  <path d="M1038 890V710L1160 612V890" fill="#121115"/>
  <path d="M1402 890V710L1280 612V890" fill="#121115"/>
  <path d="M1160 890V666L1280 560L1402 666V890" fill="#19181D" stroke="#4A392A" stroke-width="6"/>
  <path d="M1076 590L1280 424L1482 590" stroke="#6D5537" stroke-width="10" stroke-linecap="round"/>
  <ellipse cx="1280" cy="226" rx="132" ry="56" fill="#C99B49" fill-opacity="0.12"/>
  <path d="M1148 226C1188 184 1232 164 1280 164C1328 164 1372 184 1412 226C1372 268 1328 288 1280 288C1232 288 1188 268 1148 226Z" fill="#E2BE70" fill-opacity="0.08" stroke="#E2BE70" stroke-opacity="0.16" stroke-width="6"/>
  <circle cx="1280" cy="226" r="24" fill="#E2BE70" fill-opacity="0.12"/>
  <ellipse cx="520" cy="320" rx="340" ry="88" fill="#17161A" fill-opacity="0.65"/>
  <ellipse cx="2140" cy="386" rx="400" ry="96" fill="#17161A" fill-opacity="0.55"/>
  <ellipse cx="1600" cy="240" rx="260" ry="70" fill="#1E1318" fill-opacity="0.3"/>
</svg>
