<svg xmlns="http://www.w3.org/2000/svg" viewBox="0 0 1024 1024" fill="none">
  <defs>
    <radialGradient id="bg" cx="0" cy="0" r="1" gradientUnits="userSpaceOnUse" gradientTransform="translate(512 460) rotate(90) scale(460)">
      <stop stop-color="#272634"/>
      <stop offset="1" stop-color="#101015"/>
    </radialGradient>
    <linearGradient id="feather" x1="408" y1="242" x2="646" y2="760" gradientUnits="userSpaceOnUse">
      <stop stop-color="#FFF6D7"/>
      <stop offset="0.45" stop-color="#E8D8A6"/>
      <stop offset="1" stop-color="#A48755"/>
    </linearGradient>
  </defs>
  <rect width="1024" height="1024" rx="224" fill="#09090B"/>
  <rect x="44" y="44" width="936" height="936" rx="180" fill="url(#bg)" stroke="#3A3025" stroke-width="6"/>
  <circle cx="512" cy="512" r="302" fill="#15151C" stroke="#5A4A38" stroke-width="8"/>
  <path d="M436 756C436 756 398 496 462 340C504 238 596 232 632 314C674 410 622 584 474 744" fill="url(#feather)" stroke="#F3E6BE" stroke-width="14" stroke-linejoin="round"/>
  <path d="M462 742C474 666 506 536 586 356" stroke="#B08E63" stroke-width="10" stroke-linecap="round"/>
  <path d="M500 514L590 440" stroke="#C7A77D" stroke-width="8" stroke-linecap="round"/>
  <path d="M484 580L562 520" stroke="#C7A77D" stroke-width="8" stroke-linecap="round"/>
  <path d="M470 648L540 594" stroke="#C7A77D" stroke-width="8" stroke-linecap="round"/>
  <circle cx="512" cy="512" r="204" stroke="#DDBA6B" stroke-width="4" stroke-dasharray="18 16" opacity="0.45"/>
</svg>
